# Blender v3.1.2 OBJ File: 'Builbing.blend'
# www.blender.org
mtllib DODAI.mtl
o 立方体.004_立方体.012
v 0.636396 0.625359 -1.631503
v 0.636396 0.931987 -1.631503
v 0.636396 0.625359 1.677919
v 0.636396 0.931987 1.677919
v -0.636396 0.625359 -1.631503
v -0.636396 0.931987 -1.631503
v -0.636396 0.625359 1.677919
v -0.636396 0.931987 1.677919
v 0.636396 0.625359 0.162552
v 0.636396 0.931987 0.162552
v -0.636396 0.625359 0.162552
v -0.636396 0.931987 0.162552
v 0.636396 0.625359 -0.925455
v -0.636396 0.931987 -0.925455
v 0.636396 0.931987 -0.925455
v -0.636396 0.625359 -0.925455
v 0.636396 0.062559 -0.925455
v 0.636396 0.062559 -1.631503
v -0.636396 0.062559 1.677919
v 0.636396 0.062559 1.677919
v -0.636396 0.062559 0.162552
v -0.636396 0.062559 -1.631503
v 0.636396 0.062559 0.162552
v -0.636396 0.062559 -0.925455
v 0.986313 0.625359 -0.925455
v 0.986313 0.625359 -1.631503
v 0.986313 0.931987 -1.631503
v 0.986313 0.931987 0.162552
v 0.986313 0.931987 1.677919
v 0.986313 0.625359 1.677919
v 0.986313 0.625359 0.162552
v 0.986313 0.931987 -0.925455
v 0.986313 0.062559 -0.925455
v 0.986313 0.062559 -1.631503
v 0.986313 0.062559 1.677919
v 0.986313 0.062559 0.162552
vt 0.125000 0.696664
vt 0.125000 0.696664
vt 0.125000 0.696664
vt 0.125000 0.696664
vt 0.375000 0.250000
vt 0.625000 0.250000
vt 0.625000 0.500000
vt 0.375000 0.500000
vt 0.375000 0.696664
vt 0.625000 0.696664
vt 0.625000 0.750000
vt 0.375000 0.750000
vt 0.625000 1.000000
vt 0.375000 1.000000
vt 0.375000 0.696664
vt 0.875000 0.696664
vt 0.875000 0.750000
vt 0.875000 0.500000
vt 0.875000 0.614474
vt 0.625000 0.614474
vt 0.375000 0.614474
vt 0.125000 0.614474
vt 0.125000 0.614474
vt 0.375000 0.614474
vt 0.125000 0.500000
vt 0.125000 0.614474
vt 0.125000 0.500000
vt 0.375000 1.000000
vt 0.375000 1.000000
vt 0.375000 1.000000
vt 0.375000 0.750000
vt 0.125000 0.750000
vt 0.375000 0.500000
vt 0.375000 0.250000
vt 0.625000 1.000000
vt 0.125000 0.750000
vt 0.375000 0.135526
vt 0.625000 0.135526
vt 0.625000 0.250000
vt 0.375000 0.250000
vt 0.375000 0.053336
vt 0.625000 0.053336
vt 0.375000 0.000000
vt 0.625000 0.000000
vt 0.375000 0.053336
vt 0.375000 0.000000
vt 0.375000 0.250000
vt 0.375000 0.135526
vt 0.875000 0.696664
vt 0.875000 0.750000
vt 0.875000 0.500000
vt 0.875000 0.614474
vt 0.125000 0.614474
vn 0.0000 0.0000 1.0000
vn -1.0000 0.0000 0.0000
vn 0.0000 0.0000 -1.0000
vn 0.0000 1.0000 0.0000
vn 0.0000 -1.0000 0.0000
vn 1.0000 0.0000 0.0000
usemtl マテリアル.002
s off
f 13/1/1 17/2/1 33/3/1 25/4/1
f 3/5/1 4/6/1 8/7/1 7/8/1
f 16/9/2 14/10/2 6/11/2 5/12/2
f 5/12/3 6/11/3 2/13/3 1/14/3
f 13/1/1 16/9/1 24/15/1 17/2/1
f 14/10/4 15/16/4 2/17/4 6/11/4
f 8/7/4 4/18/4 10/19/4 12/20/4
f 11/21/3 9/22/3 23/23/3 21/24/3
f 7/8/2 8/7/2 12/20/2 11/21/2
f 20/25/5 23/23/5 36/26/5 35/27/5
f 18/28/3 1/14/3 26/29/3 34/30/3
f 12/20/4 10/19/4 15/16/4 14/10/4
f 9/22/5 11/21/5 16/9/5 13/1/5
f 11/21/2 12/20/2 14/10/2 16/9/2
f 17/2/5 24/15/5 22/31/5 18/32/5
f 20/25/5 19/33/5 21/24/5 23/23/5
f 3/5/1 7/8/1 19/33/1 20/34/1
f 1/14/3 2/13/3 27/35/3 26/29/3
f 7/8/2 11/21/2 21/24/2 19/33/2
f 16/9/2 5/12/2 22/31/2 24/15/2
f 17/2/5 18/32/5 34/36/5 33/3/5
f 5/12/3 1/14/3 18/28/3 22/31/3
f 31/37/6 28/38/6 29/39/6 30/40/6
f 25/41/6 32/42/6 28/38/6 31/37/6
f 26/43/6 27/44/6 32/42/6 25/41/6
f 26/43/6 25/41/6 33/45/6 34/46/6
f 31/37/6 30/40/6 35/47/6 36/48/6
f 2/17/4 15/16/4 32/49/4 27/50/4
f 10/19/4 4/18/4 29/51/4 28/52/4
f 23/23/3 9/22/3 31/53/3 36/26/3
f 15/16/4 10/19/4 28/52/4 32/49/4
f 9/22/5 13/1/5 25/4/5 31/53/5
f 4/6/1 3/5/1 30/40/1 29/39/1
f 3/5/1 20/34/1 35/47/1 30/40/1
